<svg width="1970" height="216" viewBox="0 0 1970 216" fill="none" xmlns="http://www.w3.org/2000/svg">
<path d="M153.938 6.01605C145.321 6.30827 137.409 9.68529 132.605 15.7348L116.538 35.9788L106.814 34.7648L106.811 34.7618C104.602 34.5027 102.558 35.9638 102.088 38.1358C101.491 40.7326 99.1224 42.4527 96.4158 42.4558C93.1878 42.4558 90.7464 39.9644 90.7434 36.7862V36.5181C90.6952 34.3822 89.0857 32.6018 86.9639 32.3337L73.7327 30.5804C73.4162 30.5473 73.0997 30.5473 72.7862 30.5804C71.5565 30.6738 70.4262 31.2884 69.6788 32.2674C68.9283 33.2465 68.6359 34.4997 68.871 35.7077L77.3763 79.8413C69.1272 82.4411 61.5317 86.8002 55.3682 92.934C45.2774 102.972 39.4365 116.925 39.4365 131.126C39.4365 131.699 39.554 132.31 39.5691 132.88V132.883C39.4757 132.967 39.3852 133.057 39.3008 133.151L3.78999 177.823C-1.57193 184.574 -0.945017 193.32 3.78999 199.281C8.525 205.243 16.7951 208.997 26.4732 209H340.687C349.624 209 358.223 205.596 363.238 199.281C368.254 192.967 368.254 184.137 363.238 177.823L234.561 15.7397C229.545 9.42847 220.811 6.02099 211.877 6.02099C202.941 6.02099 194.345 9.42515 189.326 15.7397L183.521 23.0269L177.716 15.7397C172.439 9.09708 163.418 5.69862 153.951 6.02099L153.938 6.01605ZM154.206 14.6528C161.332 14.4118 167.92 17.3188 170.949 21.1296L177.972 29.9021L168.116 42.4518L126.529 37.189L139.357 21.1295C142.112 17.6621 147.724 14.8725 154.21 14.6526L154.206 14.6528ZM211.865 14.6528C218.43 14.6528 224.928 17.6894 227.665 21.1296L356.482 183.213C359.215 186.657 359.215 190.567 356.482 194.01C353.748 197.45 347.246 200.351 340.682 200.355H83.1794C76.6149 200.355 69.9814 197.453 67.2477 194.01C64.5139 190.567 64.5139 186.654 67.2477 183.213L71.7024 177.544V177.547C71.9043 177.342 72.0851 177.116 72.2419 176.872L99.7868 142.186L133.544 99.8087C133.701 99.5978 133.836 99.3719 133.951 99.1339L186.34 33.2748H186.343C186.789 32.9012 187.157 32.4433 187.422 31.9251L196.063 21.1283C198.797 17.6881 205.298 14.6515 211.863 14.6515L211.865 14.6528ZM78.4573 39.8919L82.7794 40.4311C84.4191 46.5435 89.8081 51.0922 96.418 51.0922C101.557 51.0922 105.623 47.905 108.167 43.6694L161.772 50.4174L129.636 90.7699C119.786 82.1393 106.878 77.1535 93.7183 77.1381C91.0207 77.1381 88.4045 77.4092 85.7524 77.8129L78.4615 39.8882L78.4573 39.8919ZM103.437 58.9221C100.083 58.9221 97.3612 61.6575 97.3612 64.9953C97.3612 68.3302 100.083 70.933 103.437 70.933C106.792 70.933 109.514 68.3302 109.514 64.9953C109.514 61.6575 106.792 58.9221 103.437 58.9221ZM133.008 60.0005C129.653 60.0005 126.932 62.7359 126.932 66.0738C126.932 69.4086 129.653 72.147 133.008 72.147C136.362 72.147 139.084 69.4116 139.084 66.0738C139.084 62.7359 136.362 60.0005 133.008 60.0005ZM203.219 63.1034C201.538 63.2691 200.106 64.3958 199.554 65.9924C199.003 67.589 199.434 69.3604 200.655 70.5262L205.784 75.521L200.655 80.5158V80.5128C199.847 81.3352 199.398 82.4468 199.407 83.6006C199.419 84.7544 199.889 85.857 200.715 86.6643C201.538 87.4717 202.653 87.9175 203.807 87.9025C204.962 87.8874 206.062 87.4145 206.866 86.5861L211.864 81.5913L216.993 86.5861C217.762 87.541 218.901 88.1225 220.128 88.1887C221.352 88.255 222.545 87.7971 223.413 86.9295C224.281 86.0649 224.736 84.8689 224.673 83.6459C224.607 82.4228 224.025 81.284 223.07 80.5128L218.072 75.5181L223.07 70.5233V70.5263C224.465 69.2279 224.842 67.1704 224.004 65.4623C223.163 63.7542 221.303 62.7962 219.423 63.1035C218.488 63.2752 217.632 63.7482 216.993 64.4531L211.864 69.4479L206.866 64.4531C205.935 63.4529 204.582 62.9498 203.219 63.1034ZM93.7108 85.7752C104.809 85.7752 115.674 90.5561 123.956 97.9217L119.366 103.724C112.184 96.7227 102.578 92.6678 92.4962 92.6554C71.2474 92.6554 53.8774 109.917 53.8774 131.119C53.8774 144.284 60.7825 156.346 71.8346 163.374L68.055 168.098C56.1047 159.768 48.084 145.603 48.0724 131.119C48.0724 119.298 53.0305 107.362 61.4395 99.0001C69.8513 90.6341 81.8083 85.7752 93.7108 85.7752ZM92.4962 101.296C100.589 101.296 108.338 104.697 113.965 110.471L77.1038 156.764C68.1009 151.378 62.5223 141.599 62.5223 131.122C62.5223 114.598 75.9078 101.295 92.5001 101.295L92.4962 101.296ZM95.8689 102.645C94.5608 102.657 93.3311 103.257 92.5173 104.278C91.7035 105.299 91.3961 106.637 91.6824 107.911L94.2473 119.922C94.3287 121.172 94.9466 122.326 95.9442 123.085C96.9419 123.844 98.2198 124.133 99.4495 123.877C100.676 123.618 101.731 122.841 102.34 121.747C102.949 120.651 103.051 119.343 102.62 118.169L100.191 106.158V106.155C99.7962 104.091 97.9727 102.609 95.8689 102.645ZM168.245 102.781C166.563 102.944 165.131 104.073 164.577 105.67C164.025 107.266 164.456 109.038 165.68 110.204L170.677 115.198L165.68 120.193V120.19C164.851 120.995 164.378 122.097 164.363 123.251C164.348 124.405 164.794 125.516 165.601 126.342C166.409 127.164 167.512 127.634 168.667 127.646C169.821 127.658 170.933 127.209 171.756 126.399L176.753 121.272L181.883 126.399C182.706 127.209 183.815 127.658 184.97 127.646C186.124 127.634 187.227 127.164 188.035 126.342C188.843 125.516 189.289 124.405 189.274 123.251C189.259 122.097 188.785 120.995 187.96 120.19L182.962 115.195L187.96 110.201V110.204C189.316 108.92 189.696 106.908 188.897 105.221C188.098 103.531 186.302 102.546 184.448 102.781C183.463 102.922 182.555 103.398 181.883 104.13L176.753 109.125L171.756 104.13C170.852 103.169 169.559 102.672 168.245 102.781ZM238.324 102.781C236.642 102.944 235.21 104.073 234.658 105.67C234.107 107.266 234.538 109.038 235.759 110.204L240.756 115.198L235.759 120.193V120.19C234.924 120.995 234.445 122.097 234.426 123.254C234.408 124.414 234.854 125.531 235.665 126.36C236.476 127.185 237.582 127.655 238.743 127.664C239.9 127.673 241.015 127.215 241.835 126.399L246.965 121.272L251.962 126.399C252.785 127.215 253.897 127.673 255.057 127.664C256.215 127.655 257.324 127.185 258.135 126.36C258.945 125.531 259.392 124.414 259.374 123.254C259.355 122.097 258.873 120.995 258.038 120.19L253.041 115.195L258.038 110.201V110.204C259.398 108.92 259.774 106.908 258.976 105.221C258.177 103.531 256.384 102.546 254.527 102.781C253.544 102.922 252.637 103.398 251.962 104.13L246.965 109.125L241.835 104.13C240.934 103.169 239.641 102.672 238.324 102.781ZM76.2899 114.252C74.5749 114.5 73.1704 115.75 72.7303 117.428C72.2873 119.106 72.8931 120.883 74.2645 121.946L84.6632 129.908C85.5342 130.803 86.7489 131.276 87.9967 131.207C89.2415 131.14 90.3989 130.535 91.1674 129.55C91.936 128.568 92.2404 127.3 92.0023 126.073C91.7642 124.85 91.0076 123.787 89.9287 123.16L79.53 115.199H79.533C78.6257 114.457 77.4533 114.114 76.2899 114.252ZM79.9429 133.683C79.9429 133.683 77.5769 133.87 75.0813 134.09C73.8335 134.198 72.6038 134.415 71.5699 134.496C70.5362 134.578 69.4782 134.629 69.6802 134.629L69.6741 134.632C68.5198 134.617 67.4046 135.063 66.5788 135.876C65.7559 136.687 65.2917 137.795 65.2917 138.952C65.2917 140.109 65.7559 141.214 66.5788 142.028C67.4046 142.838 68.5198 143.287 69.6741 143.269C70.497 143.269 71.1571 143.082 72.2391 143.001C73.3211 142.913 74.6231 142.841 75.886 142.733C78.4118 142.507 80.7477 142.326 80.7477 142.326V142.329C81.899 142.227 82.96 141.672 83.7014 140.784C84.4398 139.898 84.7955 138.753 84.6869 137.602C84.5784 136.455 84.0178 135.394 83.1257 134.659C82.2336 133.927 81.0852 133.578 79.9369 133.692L79.9429 133.683ZM133.68 142.458C131.925 142.474 130.355 143.546 129.701 145.173C129.05 146.802 129.448 148.661 130.711 149.881L135.708 155.009L130.711 160.003C129.755 160.771 129.171 161.91 129.104 163.136C129.041 164.359 129.499 165.555 130.364 166.42C131.232 167.288 132.426 167.745 133.653 167.679C134.876 167.613 136.015 167.031 136.787 166.077L141.917 160.949L146.914 166.077C147.683 167.032 148.822 167.613 150.046 167.679C151.272 167.745 152.466 167.288 153.334 166.42C154.199 165.555 154.657 164.359 154.594 163.136C154.528 161.91 153.943 160.772 152.99 160.003L147.861 155.009L152.99 149.881C154.268 148.646 154.657 146.751 153.973 145.109C153.286 143.471 151.661 142.416 149.883 142.458C148.756 142.504 147.689 142.989 146.914 143.808L141.917 148.803L136.787 143.808C135.976 142.955 134.855 142.467 133.68 142.458ZM203.355 142.458C201.649 142.576 200.172 143.685 199.587 145.293C199.003 146.899 199.422 148.697 200.654 149.881L205.784 155.009L200.654 160.003C198.984 161.72 199.018 164.462 200.73 166.137C202.442 167.809 205.187 167.782 206.866 166.077L211.863 161.082L216.993 166.077C217.762 167.031 218.901 167.613 220.125 167.679C221.352 167.745 222.545 167.288 223.413 166.42C224.278 165.552 224.736 164.359 224.67 163.136C224.607 161.91 224.022 160.774 223.07 160.003L218.072 155.009L223.07 149.881C224.347 148.646 224.739 146.751 224.052 145.109C223.365 143.471 221.743 142.416 219.962 142.458C218.835 142.504 217.768 142.989 216.993 143.808L211.863 148.803L206.866 143.808C206.058 142.955 204.934 142.467 203.759 142.458C203.623 142.452 203.487 142.452 203.355 142.458ZM273.702 142.458C271.948 142.474 270.378 143.546 269.727 145.173C269.073 146.802 269.471 148.661 270.733 149.881L275.863 155.009L270.733 160.003C269.778 160.775 269.196 161.91 269.13 163.136C269.064 164.359 269.522 165.552 270.39 166.42C271.258 167.288 272.451 167.745 273.675 167.679C274.902 167.613 276.038 167.031 276.81 166.077L281.807 160.949L286.937 166.077C287.705 167.032 288.845 167.613 290.068 167.679C291.295 167.745 292.489 167.288 293.357 166.42C294.222 165.552 294.68 164.359 294.616 163.136C294.55 161.91 293.968 160.775 293.013 160.003L288.016 155.009L293.013 149.881C294.291 148.646 294.683 146.751 293.996 145.109C293.308 143.471 291.687 142.416 289.906 142.458C288.778 142.504 287.711 142.989 286.937 143.808L281.807 148.803L276.81 143.808C276.002 142.955 274.881 142.467 273.702 142.458ZM41.3288 144.48C44.602 156.75 52.0947 167.863 62.5297 175.249L60.5043 177.813C55.489 184.127 55.489 192.957 60.5043 199.271C60.7966 199.641 61.1312 200 61.4507 200.349H26.4792C19.0677 200.349 13.2866 197.457 10.5475 194.005C7.80469 190.553 7.36465 187.215 10.5475 183.208L41.3323 144.473L41.3288 144.48Z" fill="#232A30"/>
<path d="M572.96 170H523.64V149.48H536.24V120.86H486.74V149.48H499.34V170H450.02V149.48H462.62V73.52H450.02V53H499.34V73.52H486.74V100.52H536.24V73.52H523.64V53H572.96V73.52H560.36V149.48H572.96V170ZM695.314 170H604.954V149.48H617.554V73.52H604.954V53H694.234L697.834 87.2L677.314 89L673.714 73.52H641.674V101.06H690.994V121.4H641.674V149.48H674.794L678.394 134L698.914 135.8L695.314 170ZM846.293 170H799.673V149.48H809.033L804.713 137.6H764.933L760.073 149.48H771.053V170H724.973V149.48H735.593L769.073 73.52H752.873V53H793.013L835.133 149.48H846.293V170ZM798.233 120.32L785.993 87.38H784.913L771.773 120.32H798.233ZM959.067 170H871.227V149.48H883.827V73.52H871.227V53H924.327V73.52H907.947V149.48H938.547L942.147 126.8L962.667 128.6L959.067 170ZM1087.18 92.6L1066.66 94.4L1063.06 73.52H1044.52V149.48H1063.6V170H1002.4V149.48H1020.4V73.52H1001.86L998.265 94.4L977.745 92.6L981.345 53H1083.58L1087.18 92.6ZM1239.17 170H1189.85V149.48H1202.45V120.86H1152.95V149.48H1165.55V170H1116.23V149.48H1128.83V73.52H1116.23V53H1165.55V73.52H1152.95V100.52H1202.45V73.52H1189.85V53H1239.17V73.52H1226.57V149.48H1239.17V170ZM1378.62 73.52H1368.54L1334.52 124.28V149.48H1353.6V170H1292.4V149.48H1310.4V124.1L1275.3 73.52H1264.86V53H1313.28V73.52H1303.56L1323.18 103.04H1324.26L1343.7 73.52H1332.54V53H1378.62V73.52ZM1506.15 135.26C1506.15 144.62 1502.97 152.78 1496.61 159.74C1490.37 166.58 1480.53 170 1467.09 170H1405.53V149.48H1418.13V73.52H1405.53V53H1466.37C1477.05 53 1485.63 55.52 1492.11 60.56C1498.71 65.48 1502.01 72.08 1502.01 80.36C1502.01 86.48 1500.15 91.82 1496.43 96.38C1492.71 100.94 1487.49 103.76 1480.77 104.84V105.56C1489.17 106.76 1495.47 110.06 1499.67 115.46C1503.99 120.86 1506.15 127.46 1506.15 135.26ZM1476.09 86.66C1476.09 81.38 1474.47 77.9 1471.23 76.22C1468.11 74.42 1464.39 73.52 1460.07 73.52H1442.25V100.88H1458.27C1465.11 100.88 1469.79 99.5 1472.31 96.74C1474.83 93.98 1476.09 90.62 1476.09 86.66ZM1480.23 134.36C1480.23 124.52 1474.29 119.6 1462.41 119.6H1442.25V149.48H1460.79C1473.75 149.48 1480.23 144.44 1480.23 134.36ZM1584.82 170H1535.5V149.48H1548.1V73.52H1535.5V53H1584.82V73.52H1572.22V149.48H1584.82V170ZM1722.99 92.6L1702.47 94.4L1698.87 73.52H1680.33V149.48H1699.41V170H1638.21V149.48H1656.21V73.52H1637.67L1634.07 94.4L1613.55 92.6L1617.15 53H1719.39L1722.99 92.6ZM1842.39 170H1752.03V149.48H1764.63V73.52H1752.03V53H1841.31L1844.91 87.2L1824.39 89L1820.79 73.52H1788.75V101.06H1838.07V121.4H1788.75V149.48H1821.87L1825.47 134L1845.99 135.8L1842.39 170ZM1964.39 134.54C1964.39 146.66 1960.31 155.9 1952.15 162.26C1943.99 168.62 1932.77 171.8 1918.49 171.8C1910.57 171.8 1902.65 170.78 1894.73 168.74C1886.93 166.7 1880.75 163.64 1876.19 159.56L1879.79 130.58L1899.05 132.38L1898.87 146.6C1902.95 148.76 1906.43 150.08 1909.31 150.56C1912.19 150.92 1914.65 151.1 1916.69 151.1C1923.05 151.1 1928.27 150.32 1932.35 148.76C1936.43 147.08 1938.47 143.3 1938.47 137.42C1938.47 130.94 1936.07 126.62 1931.27 124.46C1926.47 122.18 1920.83 120.44 1914.35 119.24C1908.71 118.28 1903.01 116.9 1897.25 115.1C1891.61 113.18 1886.87 110.12 1883.03 105.92C1879.19 101.6 1877.27 95.24 1877.27 86.84C1877.27 73.76 1881.71 64.58 1890.59 59.3C1899.47 53.9 1909.19 51.2 1919.75 51.2C1927.43 51.2 1934.75 52.4 1941.71 54.8C1948.67 57.08 1954.01 60.2 1957.73 64.16L1958.81 89.54L1939.55 91.34L1937.93 77.66C1934.93 75.62 1931.87 74.24 1928.75 73.52C1925.75 72.8 1922.81 72.44 1919.93 72.44C1915.13 72.44 1911.11 73.28 1907.87 74.96C1904.75 76.64 1903.19 79.58 1903.19 83.78C1903.19 88.7 1905.23 92.12 1909.31 94.04C1913.39 95.96 1918.07 97.52 1923.35 98.72C1928.15 99.68 1933.73 101.06 1940.09 102.86C1946.57 104.54 1952.21 107.78 1957.01 112.58C1961.93 117.26 1964.39 124.58 1964.39 134.54Z" fill="#232A30"/>
</svg>
