<svg width="496" height="496" viewBox="0 0 496 496" fill="none" xmlns="http://www.w3.org/2000/svg">
<circle cx="248" cy="248" r="243" fill="#161718" stroke="#FFDB9D" stroke-width="10"/>
<circle cx="248" cy="248" r="228" fill="#FFDB9D"/>
<path d="M217.938 126.016C209.321 126.308 201.409 129.685 196.605 135.735L180.538 155.979L170.814 154.765L170.811 154.762C168.602 154.503 166.558 155.964 166.088 158.136C165.491 160.733 163.122 162.453 160.416 162.456C157.188 162.456 154.746 159.964 154.743 156.786V156.518C154.695 154.382 153.086 152.602 150.964 152.334L137.733 150.58C137.416 150.547 137.1 150.547 136.786 150.58C135.556 150.674 134.426 151.288 133.679 152.267C132.928 153.246 132.636 154.5 132.871 155.708L141.376 199.841C133.127 202.441 125.532 206.8 119.368 212.934C109.277 222.972 103.436 236.925 103.436 251.126C103.436 251.699 103.554 252.31 103.569 252.88V252.883C103.476 252.967 103.385 253.057 103.301 253.151L67.79 297.823C62.4281 304.574 63.055 313.32 67.79 319.281C72.525 325.243 80.7951 328.997 90.4732 329H404.687C413.624 329 422.223 325.596 427.238 319.281C432.254 312.967 432.254 304.137 427.238 297.823L298.561 135.74C293.545 129.428 284.811 126.021 275.877 126.021C266.941 126.021 258.345 129.425 253.326 135.74L247.521 143.027L241.716 135.74C236.439 129.097 227.418 125.699 217.951 126.021L217.938 126.016ZM218.206 134.653C225.332 134.412 231.92 137.319 234.949 141.13L241.972 149.902L232.116 162.452L190.529 157.189L203.357 141.129C206.112 137.662 211.724 134.872 218.21 134.653L218.206 134.653ZM275.865 134.653C282.43 134.653 288.928 137.689 291.665 141.13L420.482 303.213C423.215 306.657 423.215 310.567 420.482 314.01C417.748 317.45 411.246 320.352 404.682 320.355H147.179C140.615 320.355 133.981 317.453 131.248 314.01C128.514 310.567 128.514 306.654 131.248 303.213L135.702 297.544V297.547C135.904 297.342 136.085 297.116 136.242 296.872L163.787 262.186L197.544 219.809C197.701 219.598 197.836 219.372 197.951 219.134L250.34 153.275H250.343C250.789 152.901 251.157 152.443 251.422 151.925L260.063 141.128C262.797 137.688 269.298 134.651 275.863 134.651L275.865 134.653ZM142.457 159.892L146.779 160.431C148.419 166.544 153.808 171.092 160.418 171.092C165.557 171.092 169.623 167.905 172.167 163.669L225.772 170.417L193.636 210.77C183.786 202.139 170.878 197.154 157.718 197.138C155.021 197.138 152.405 197.409 149.752 197.813L142.461 159.888L142.457 159.892ZM167.437 178.922C164.083 178.922 161.361 181.657 161.361 184.995C161.361 188.33 164.083 190.933 167.437 190.933C170.792 190.933 173.514 188.33 173.514 184.995C173.514 181.657 170.792 178.922 167.437 178.922ZM197.008 180.001C193.653 180.001 190.932 182.736 190.932 186.074C190.932 189.409 193.653 192.147 197.008 192.147C200.362 192.147 203.084 189.412 203.084 186.074C203.084 182.736 200.362 180.001 197.008 180.001ZM267.219 183.103C265.538 183.269 264.106 184.396 263.554 185.992C263.003 187.589 263.434 189.36 264.655 190.526L269.784 195.521L264.655 200.516V200.513C263.847 201.335 263.398 202.447 263.407 203.601C263.419 204.754 263.889 205.857 264.715 206.664C265.538 207.472 266.653 207.918 267.807 207.903C268.962 207.887 270.062 207.414 270.866 206.586L275.864 201.591L280.993 206.586C281.762 207.541 282.901 208.122 284.128 208.189C285.352 208.255 286.545 207.797 287.413 206.929C288.281 206.065 288.736 204.869 288.673 203.646C288.607 202.423 288.025 201.284 287.07 200.513L282.072 195.518L287.07 190.523V190.526C288.465 189.228 288.842 187.17 288.004 185.462C287.163 183.754 285.303 182.796 283.423 183.103C282.488 183.275 281.632 183.748 280.993 184.453L275.864 189.448L270.866 184.453C269.935 183.453 268.582 182.95 267.219 183.103ZM157.711 205.775C168.809 205.775 179.674 210.556 187.956 217.922L183.366 223.724C176.184 216.723 166.578 212.668 156.496 212.655C135.247 212.655 117.877 229.917 117.877 251.119C117.877 264.284 124.783 276.346 135.835 283.374L132.055 288.098C120.105 279.768 112.084 265.603 112.072 251.119C112.072 239.298 117.031 227.362 125.439 219C133.851 210.634 145.808 205.775 157.711 205.775ZM156.496 221.296C164.589 221.296 172.338 224.697 177.965 230.471L141.104 276.764C132.101 271.378 126.522 261.599 126.522 251.122C126.522 234.598 139.908 221.295 156.5 221.295L156.496 221.296ZM159.869 222.645C158.561 222.657 157.331 223.257 156.517 224.278C155.703 225.299 155.396 226.637 155.682 227.911L158.247 239.922C158.329 241.172 158.947 242.326 159.944 243.085C160.942 243.844 162.22 244.133 163.45 243.877C164.676 243.618 165.731 242.841 166.34 241.747C166.949 240.651 167.051 239.343 166.62 238.169L164.191 226.158V226.155C163.796 224.091 161.973 222.609 159.869 222.645ZM232.245 222.781C230.563 222.944 229.131 224.073 228.577 225.67C228.025 227.266 228.456 229.038 229.68 230.204L234.677 235.198L229.68 240.193V240.19C228.851 240.995 228.378 242.097 228.363 243.251C228.348 244.405 228.794 245.516 229.601 246.342C230.409 247.164 231.512 247.634 232.667 247.646C233.821 247.658 234.933 247.209 235.756 246.399L240.753 241.272L245.883 246.399C246.706 247.209 247.815 247.658 248.97 247.646C250.124 247.634 251.227 247.164 252.035 246.342C252.843 245.516 253.289 244.405 253.274 243.251C253.259 242.097 252.785 240.995 251.96 240.19L246.962 235.195L251.96 230.201V230.204C253.316 228.92 253.696 226.908 252.897 225.221C252.098 223.531 250.302 222.546 248.448 222.781C247.463 222.922 246.555 223.398 245.883 224.13L240.753 229.125L235.756 224.13C234.852 223.169 233.559 222.672 232.245 222.781ZM302.324 222.781C300.642 222.944 299.21 224.073 298.658 225.67C298.107 227.266 298.538 229.038 299.759 230.204L304.756 235.198L299.759 240.193V240.19C298.924 240.995 298.445 242.097 298.426 243.254C298.408 244.414 298.854 245.531 299.665 246.36C300.476 247.185 301.582 247.655 302.743 247.664C303.9 247.673 305.015 247.215 305.835 246.399L310.965 241.272L315.962 246.399C316.785 247.215 317.897 247.673 319.057 247.664C320.215 247.655 321.324 247.185 322.135 246.36C322.945 245.531 323.392 244.414 323.374 243.254C323.355 242.097 322.873 240.995 322.038 240.19L317.041 235.195L322.038 230.201V230.204C323.398 228.92 323.774 226.908 322.976 225.221C322.177 223.531 320.384 222.546 318.527 222.781C317.544 222.922 316.637 223.398 315.962 224.13L310.965 229.125L305.835 224.13C304.934 223.169 303.641 222.672 302.324 222.781ZM140.29 234.252C138.575 234.5 137.17 235.75 136.73 237.428C136.287 239.106 136.893 240.883 138.264 241.946L148.663 249.908C149.534 250.803 150.749 251.276 151.997 251.207C153.241 251.14 154.399 250.535 155.167 249.55C155.936 248.568 156.24 247.3 156.002 246.073C155.764 244.85 155.008 243.787 153.929 243.16L143.53 235.199H143.533C142.626 234.457 141.453 234.114 140.29 234.252ZM143.943 253.683C143.943 253.683 141.577 253.87 139.081 254.09C137.833 254.198 136.604 254.415 135.57 254.496C134.536 254.578 133.478 254.629 133.68 254.629L133.674 254.632C132.52 254.617 131.405 255.063 130.579 255.876C129.756 256.687 129.292 257.795 129.292 258.952C129.292 260.109 129.756 261.214 130.579 262.028C131.405 262.838 132.52 263.287 133.674 263.269C134.497 263.269 135.157 263.082 136.239 263.001C137.321 262.913 138.623 262.841 139.886 262.733C142.412 262.507 144.748 262.326 144.748 262.326V262.329C145.899 262.227 146.96 261.672 147.701 260.784C148.44 259.898 148.796 258.753 148.687 257.602C148.578 256.455 148.018 255.394 147.126 254.659C146.234 253.927 145.085 253.578 143.937 253.692L143.943 253.683ZM197.68 262.458C195.925 262.474 194.355 263.546 193.701 265.173C193.05 266.802 193.448 268.661 194.711 269.881L199.708 275.009L194.711 280.003C193.755 280.771 193.171 281.91 193.104 283.136C193.041 284.359 193.499 285.555 194.364 286.42C195.232 287.288 196.426 287.745 197.653 287.679C198.876 287.613 200.015 287.031 200.787 286.077L205.917 280.949L210.914 286.077C211.683 287.032 212.822 287.613 214.046 287.679C215.272 287.745 216.466 287.288 217.334 286.42C218.199 285.555 218.657 284.359 218.594 283.136C218.528 281.91 217.943 280.771 216.99 280.003L211.861 275.009L216.99 269.881C218.268 268.646 218.657 266.751 217.973 265.109C217.286 263.471 215.661 262.416 213.883 262.458C212.756 262.504 211.689 262.989 210.914 263.808L205.917 268.803L200.787 263.808C199.976 262.955 198.855 262.467 197.68 262.458ZM267.355 262.458C265.649 262.576 264.172 263.685 263.587 265.293C263.003 266.899 263.422 268.697 264.654 269.881L269.784 275.009L264.654 280.003C262.984 281.72 263.018 284.462 264.73 286.137C266.442 287.809 269.187 287.782 270.866 286.077L275.863 281.082L280.993 286.077C281.762 287.031 282.901 287.613 284.125 287.679C285.352 287.745 286.545 287.288 287.413 286.42C288.278 285.552 288.736 284.359 288.67 283.136C288.607 281.91 288.022 280.775 287.07 280.003L282.072 275.009L287.07 269.881C288.347 268.646 288.739 266.751 288.052 265.109C287.365 263.471 285.743 262.416 283.962 262.458C282.835 262.504 281.768 262.989 280.993 263.808L275.863 268.803L270.866 263.808C270.058 262.955 268.934 262.467 267.759 262.458C267.623 262.452 267.487 262.452 267.355 262.458ZM337.702 262.458C335.948 262.474 334.378 263.546 333.727 265.173C333.073 266.802 333.471 268.661 334.733 269.881L339.863 275.009L334.733 280.003C333.778 280.775 333.196 281.91 333.13 283.136C333.064 284.359 333.522 285.552 334.39 286.42C335.258 287.288 336.451 287.745 337.675 287.679C338.902 287.613 340.038 287.031 340.81 286.077L345.807 280.949L350.937 286.077C351.705 287.032 352.845 287.613 354.068 287.679C355.295 287.745 356.489 287.288 357.357 286.42C358.222 285.552 358.68 284.359 358.616 283.136C358.55 281.91 357.968 280.775 357.013 280.003L352.016 275.009L357.013 269.881C358.291 268.646 358.683 266.751 357.996 265.109C357.308 263.471 355.687 262.416 353.906 262.458C352.778 262.504 351.711 262.989 350.937 263.808L345.807 268.803L340.81 263.808C340.002 262.955 338.881 262.467 337.702 262.458ZM105.329 264.48C108.602 276.75 116.095 287.863 126.53 295.249L124.504 297.813C119.489 304.127 119.489 312.957 124.504 319.271C124.797 319.641 125.131 320 125.451 320.349H90.4792C83.0677 320.349 77.2866 317.457 74.5475 314.005C71.8047 310.553 71.3646 307.215 74.5475 303.208L105.332 264.473L105.329 264.48Z" fill="#161718"/>
</svg>
