<svg width="2152" height="356" viewBox="0 0 2152 356" fill="none" xmlns="http://www.w3.org/2000/svg">
<rect width="2152" height="356" fill="#FFDB9D"/>
<path d="M244.938 76.0161C236.321 76.3083 228.409 79.6853 223.605 85.7348L207.538 105.979L197.814 104.765L197.811 104.762C195.602 104.503 193.558 105.964 193.088 108.136C192.491 110.733 190.122 112.453 187.416 112.456C184.188 112.456 181.746 109.964 181.743 106.786V106.518C181.695 104.382 180.086 102.602 177.964 102.334L164.733 100.58C164.416 100.547 164.1 100.547 163.786 100.58C162.556 100.674 161.426 101.288 160.679 102.267C159.928 103.246 159.636 104.5 159.871 105.708L168.376 149.841C160.127 152.441 152.532 156.8 146.368 162.934C136.277 172.972 130.436 186.925 130.436 201.126C130.436 201.699 130.554 202.31 130.569 202.88V202.883C130.476 202.967 130.385 203.057 130.301 203.151L94.79 247.823C89.4281 254.574 90.055 263.32 94.79 269.281C99.525 275.243 107.795 278.997 117.473 279H431.687C440.624 279 449.223 275.596 454.238 269.281C459.254 262.967 459.254 254.137 454.238 247.823L325.561 85.7397C320.545 79.4285 311.811 76.021 302.877 76.021C293.941 76.021 285.345 79.4252 280.326 85.7397L274.521 93.0269L268.716 85.7397C263.439 79.0971 254.418 75.6986 244.951 76.021L244.938 76.0161ZM245.206 84.6528C252.332 84.4118 258.92 87.3188 261.949 91.1296L268.972 99.9021L259.116 112.452L217.529 107.189L230.357 91.1295C233.112 87.6621 238.724 84.8725 245.21 84.6526L245.206 84.6528ZM302.865 84.6528C309.43 84.6528 315.928 87.6894 318.665 91.1296L447.482 253.213C450.215 256.657 450.215 260.567 447.482 264.01C444.748 267.45 438.246 270.352 431.682 270.355H174.179C167.615 270.355 160.981 267.453 158.248 264.01C155.514 260.567 155.514 256.654 158.248 253.213L162.702 247.544V247.547C162.904 247.342 163.085 247.116 163.242 246.872L190.787 212.186L224.544 169.809C224.701 169.598 224.836 169.372 224.951 169.134L277.34 103.275H277.343C277.789 102.901 278.157 102.443 278.422 101.925L287.063 91.1283C289.797 87.6881 296.298 84.6515 302.863 84.6515L302.865 84.6528ZM169.457 109.892L173.779 110.431C175.419 116.544 180.808 121.092 187.418 121.092C192.557 121.092 196.623 117.905 199.167 113.669L252.772 120.417L220.636 160.77C210.786 152.139 197.878 147.154 184.718 147.138C182.021 147.138 179.405 147.409 176.752 147.813L169.461 109.888L169.457 109.892ZM194.437 128.922C191.083 128.922 188.361 131.657 188.361 134.995C188.361 138.33 191.083 140.933 194.437 140.933C197.792 140.933 200.514 138.33 200.514 134.995C200.514 131.657 197.792 128.922 194.437 128.922ZM224.008 130.001C220.653 130.001 217.932 132.736 217.932 136.074C217.932 139.409 220.653 142.147 224.008 142.147C227.362 142.147 230.084 139.412 230.084 136.074C230.084 132.736 227.362 130.001 224.008 130.001ZM294.219 133.103C292.538 133.269 291.106 134.396 290.554 135.992C290.003 137.589 290.434 139.36 291.655 140.526L296.784 145.521L291.655 150.516V150.513C290.847 151.335 290.398 152.447 290.407 153.601C290.419 154.754 290.889 155.857 291.715 156.664C292.538 157.472 293.653 157.918 294.807 157.903C295.962 157.887 297.062 157.414 297.866 156.586L302.864 151.591L307.993 156.586C308.762 157.541 309.901 158.122 311.128 158.189C312.352 158.255 313.545 157.797 314.413 156.929C315.281 156.065 315.736 154.869 315.673 153.646C315.607 152.423 315.025 151.284 314.07 150.513L309.072 145.518L314.07 140.523V140.526C315.465 139.228 315.842 137.17 315.004 135.462C314.163 133.754 312.303 132.796 310.423 133.103C309.488 133.275 308.632 133.748 307.993 134.453L302.864 139.448L297.866 134.453C296.935 133.453 295.582 132.95 294.219 133.103ZM184.711 155.775C195.809 155.775 206.674 160.556 214.956 167.922L210.366 173.724C203.184 166.723 193.578 162.668 183.496 162.655C162.247 162.655 144.877 179.917 144.877 201.119C144.877 214.284 151.783 226.346 162.835 233.374L159.055 238.098C147.105 229.768 139.084 215.603 139.072 201.119C139.072 189.298 144.031 177.362 152.439 169C160.851 160.634 172.808 155.775 184.711 155.775ZM183.496 171.296C191.589 171.296 199.338 174.697 204.965 180.471L168.104 226.764C159.101 221.378 153.522 211.599 153.522 201.122C153.522 184.598 166.908 171.295 183.5 171.295L183.496 171.296ZM186.869 172.645C185.561 172.657 184.331 173.257 183.517 174.278C182.703 175.299 182.396 176.637 182.682 177.911L185.247 189.922C185.329 191.172 185.947 192.326 186.944 193.085C187.942 193.844 189.22 194.133 190.45 193.877C191.676 193.618 192.731 192.841 193.34 191.747C193.949 190.651 194.051 189.343 193.62 188.169L191.191 176.158V176.155C190.796 174.091 188.973 172.609 186.869 172.645ZM259.245 172.781C257.563 172.944 256.131 174.073 255.577 175.67C255.025 177.266 255.456 179.038 256.68 180.204L261.677 185.198L256.68 190.193V190.19C255.851 190.995 255.378 192.097 255.363 193.251C255.348 194.405 255.794 195.516 256.601 196.342C257.409 197.164 258.512 197.634 259.667 197.646C260.821 197.658 261.933 197.209 262.756 196.399L267.753 191.272L272.883 196.399C273.706 197.209 274.815 197.658 275.97 197.646C277.124 197.634 278.227 197.164 279.035 196.342C279.843 195.516 280.289 194.405 280.274 193.251C280.259 192.097 279.785 190.995 278.96 190.19L273.962 185.195L278.96 180.201V180.204C280.316 178.92 280.696 176.908 279.897 175.221C279.098 173.531 277.302 172.546 275.448 172.781C274.463 172.922 273.555 173.398 272.883 174.13L267.753 179.125L262.756 174.13C261.852 173.169 260.559 172.672 259.245 172.781ZM329.324 172.781C327.642 172.944 326.21 174.073 325.658 175.67C325.107 177.266 325.538 179.038 326.759 180.204L331.756 185.198L326.759 190.193V190.19C325.924 190.995 325.445 192.097 325.426 193.254C325.408 194.414 325.854 195.531 326.665 196.36C327.476 197.185 328.582 197.655 329.743 197.664C330.9 197.673 332.015 197.215 332.835 196.399L337.965 191.272L342.962 196.399C343.785 197.215 344.897 197.673 346.057 197.664C347.215 197.655 348.324 197.185 349.135 196.36C349.945 195.531 350.392 194.414 350.374 193.254C350.355 192.097 349.873 190.995 349.038 190.19L344.041 185.195L349.038 180.201V180.204C350.398 178.92 350.774 176.908 349.976 175.221C349.177 173.531 347.384 172.546 345.527 172.781C344.544 172.922 343.637 173.398 342.962 174.13L337.965 179.125L332.835 174.13C331.934 173.169 330.641 172.672 329.324 172.781ZM167.29 184.252C165.575 184.5 164.17 185.75 163.73 187.428C163.287 189.106 163.893 190.883 165.264 191.946L175.663 199.908C176.534 200.803 177.749 201.276 178.997 201.207C180.241 201.14 181.399 200.535 182.167 199.55C182.936 198.568 183.24 197.3 183.002 196.073C182.764 194.85 182.008 193.787 180.929 193.16L170.53 185.199H170.533C169.626 184.457 168.453 184.114 167.29 184.252ZM170.943 203.683C170.943 203.683 168.577 203.87 166.081 204.09C164.833 204.198 163.604 204.415 162.57 204.496C161.536 204.578 160.478 204.629 160.68 204.629L160.674 204.632C159.52 204.617 158.405 205.063 157.579 205.876C156.756 206.687 156.292 207.795 156.292 208.952C156.292 210.109 156.756 211.214 157.579 212.028C158.405 212.838 159.52 213.287 160.674 213.269C161.497 213.269 162.157 213.082 163.239 213.001C164.321 212.913 165.623 212.841 166.886 212.733C169.412 212.507 171.748 212.326 171.748 212.326V212.329C172.899 212.227 173.96 211.672 174.701 210.784C175.44 209.898 175.796 208.753 175.687 207.602C175.578 206.455 175.018 205.394 174.126 204.659C173.234 203.927 172.085 203.578 170.937 203.692L170.943 203.683ZM224.68 212.458C222.925 212.474 221.355 213.546 220.701 215.173C220.05 216.802 220.448 218.661 221.711 219.881L226.708 225.009L221.711 230.003C220.755 230.771 220.171 231.91 220.104 233.136C220.041 234.359 220.499 235.555 221.364 236.42C222.232 237.288 223.426 237.745 224.653 237.679C225.876 237.613 227.015 237.031 227.787 236.077L232.917 230.949L237.914 236.077C238.683 237.032 239.822 237.613 241.046 237.679C242.272 237.745 243.466 237.288 244.334 236.42C245.199 235.555 245.657 234.359 245.594 233.136C245.528 231.91 244.943 230.771 243.99 230.003L238.861 225.009L243.99 219.881C245.268 218.646 245.657 216.751 244.973 215.109C244.286 213.471 242.661 212.416 240.883 212.458C239.756 212.504 238.689 212.989 237.914 213.808L232.917 218.803L227.787 213.808C226.976 212.955 225.855 212.467 224.68 212.458ZM294.355 212.458C292.649 212.576 291.172 213.685 290.587 215.293C290.003 216.899 290.422 218.697 291.654 219.881L296.784 225.009L291.654 230.003C289.984 231.72 290.018 234.462 291.73 236.137C293.442 237.809 296.187 237.782 297.866 236.077L302.863 231.082L307.993 236.077C308.762 237.031 309.901 237.613 311.125 237.679C312.352 237.745 313.545 237.288 314.413 236.42C315.278 235.552 315.736 234.359 315.67 233.136C315.607 231.91 315.022 230.775 314.07 230.003L309.072 225.009L314.07 219.881C315.347 218.646 315.739 216.751 315.052 215.109C314.365 213.471 312.743 212.416 310.962 212.458C309.835 212.504 308.768 212.989 307.993 213.808L302.863 218.803L297.866 213.808C297.058 212.955 295.934 212.467 294.759 212.458C294.623 212.452 294.487 212.452 294.355 212.458ZM364.702 212.458C362.948 212.474 361.378 213.546 360.727 215.173C360.073 216.802 360.471 218.661 361.733 219.881L366.863 225.009L361.733 230.003C360.778 230.775 360.196 231.91 360.13 233.136C360.064 234.359 360.522 235.552 361.39 236.42C362.258 237.288 363.451 237.745 364.675 237.679C365.902 237.613 367.038 237.031 367.81 236.077L372.807 230.949L377.937 236.077C378.705 237.032 379.845 237.613 381.068 237.679C382.295 237.745 383.489 237.288 384.357 236.42C385.222 235.552 385.68 234.359 385.616 233.136C385.55 231.91 384.968 230.775 384.013 230.003L379.016 225.009L384.013 219.881C385.291 218.646 385.683 216.751 384.996 215.109C384.308 213.471 382.687 212.416 380.906 212.458C379.778 212.504 378.711 212.989 377.937 213.808L372.807 218.803L367.81 213.808C367.002 212.955 365.881 212.467 364.702 212.458ZM132.329 214.48C135.602 226.75 143.095 237.863 153.53 245.249L151.504 247.813C146.489 254.127 146.489 262.957 151.504 269.271C151.797 269.641 152.131 270 152.451 270.349H117.479C110.068 270.349 104.287 267.457 101.547 264.005C98.8047 260.553 98.3646 257.215 101.547 253.208L132.332 214.473L132.329 214.48Z" fill="#161718"/>
<path d="M663.96 240H614.64V219.48H627.24V190.86H577.74V219.48H590.34V240H541.02V219.48H553.62V143.52H541.02V123H590.34V143.52H577.74V170.52H627.24V143.52H614.64V123H663.96V143.52H651.36V219.48H663.96V240ZM786.314 240H695.954V219.48H708.554V143.52H695.954V123H785.234L788.834 157.2L768.314 159L764.714 143.52H732.674V171.06H781.994V191.4H732.674V219.48H765.794L769.394 204L789.914 205.8L786.314 240ZM937.293 240H890.673V219.48H900.033L895.713 207.6H855.933L851.073 219.48H862.053V240H815.973V219.48H826.593L860.073 143.52H843.873V123H884.013L926.133 219.48H937.293V240ZM889.233 190.32L876.993 157.38H875.913L862.773 190.32H889.233ZM1050.07 240H962.227V219.48H974.827V143.52H962.227V123H1015.33V143.52H998.947V219.48H1029.55L1033.15 196.8L1053.67 198.6L1050.07 240ZM1178.18 162.6L1157.66 164.4L1154.06 143.52H1135.52V219.48H1154.6V240H1093.4V219.48H1111.4V143.52H1092.86L1089.26 164.4L1068.74 162.6L1072.34 123H1174.58L1178.18 162.6ZM1330.17 240H1280.85V219.48H1293.45V190.86H1243.95V219.48H1256.55V240H1207.23V219.48H1219.83V143.52H1207.23V123H1256.55V143.52H1243.95V170.52H1293.45V143.52H1280.85V123H1330.17V143.52H1317.57V219.48H1330.17V240ZM1469.62 143.52H1459.54L1425.52 194.28V219.48H1444.6V240H1383.4V219.48H1401.4V194.1L1366.3 143.52H1355.86V123H1404.28V143.52H1394.56L1414.18 173.04H1415.26L1434.7 143.52H1423.54V123H1469.62V143.52ZM1597.15 205.26C1597.15 214.62 1593.97 222.78 1587.61 229.74C1581.37 236.58 1571.53 240 1558.09 240H1496.53V219.48H1509.13V143.52H1496.53V123H1557.37C1568.05 123 1576.63 125.52 1583.11 130.56C1589.71 135.48 1593.01 142.08 1593.01 150.36C1593.01 156.48 1591.15 161.82 1587.43 166.38C1583.71 170.94 1578.49 173.76 1571.77 174.84V175.56C1580.17 176.76 1586.47 180.06 1590.67 185.46C1594.99 190.86 1597.15 197.46 1597.15 205.26ZM1567.09 156.66C1567.09 151.38 1565.47 147.9 1562.23 146.22C1559.11 144.42 1555.39 143.52 1551.07 143.52H1533.25V170.88H1549.27C1556.11 170.88 1560.79 169.5 1563.31 166.74C1565.83 163.98 1567.09 160.62 1567.09 156.66ZM1571.23 204.36C1571.23 194.52 1565.29 189.6 1553.41 189.6H1533.25V219.48H1551.79C1564.75 219.48 1571.23 214.44 1571.23 204.36ZM1675.82 240H1626.5V219.48H1639.1V143.52H1626.5V123H1675.82V143.52H1663.22V219.48H1675.82V240ZM1813.99 162.6L1793.47 164.4L1789.87 143.52H1771.33V219.48H1790.41V240H1729.21V219.48H1747.21V143.52H1728.67L1725.07 164.4L1704.55 162.6L1708.15 123H1810.39L1813.99 162.6ZM1933.39 240H1843.03V219.48H1855.63V143.52H1843.03V123H1932.31L1935.91 157.2L1915.39 159L1911.79 143.52H1879.75V171.06H1929.07V191.4H1879.75V219.48H1912.87L1916.47 204L1936.99 205.8L1933.39 240ZM2055.39 204.54C2055.39 216.66 2051.31 225.9 2043.15 232.26C2034.99 238.62 2023.77 241.8 2009.49 241.8C2001.57 241.8 1993.65 240.78 1985.73 238.74C1977.93 236.7 1971.75 233.64 1967.19 229.56L1970.79 200.58L1990.05 202.38L1989.87 216.6C1993.95 218.76 1997.43 220.08 2000.31 220.56C2003.19 220.92 2005.65 221.1 2007.69 221.1C2014.05 221.1 2019.27 220.32 2023.35 218.76C2027.43 217.08 2029.47 213.3 2029.47 207.42C2029.47 200.94 2027.07 196.62 2022.27 194.46C2017.47 192.18 2011.83 190.44 2005.35 189.24C1999.71 188.28 1994.01 186.9 1988.25 185.1C1982.61 183.18 1977.87 180.12 1974.03 175.92C1970.19 171.6 1968.27 165.24 1968.27 156.84C1968.27 143.76 1972.71 134.58 1981.59 129.3C1990.47 123.9 2000.19 121.2 2010.75 121.2C2018.43 121.2 2025.75 122.4 2032.71 124.8C2039.67 127.08 2045.01 130.2 2048.73 134.16L2049.81 159.54L2030.55 161.34L2028.93 147.66C2025.93 145.62 2022.87 144.24 2019.75 143.52C2016.75 142.8 2013.81 142.44 2010.93 142.44C2006.13 142.44 2002.11 143.28 1998.87 144.96C1995.75 146.64 1994.19 149.58 1994.19 153.78C1994.19 158.7 1996.23 162.12 2000.31 164.04C2004.39 165.96 2009.07 167.52 2014.35 168.72C2019.15 169.68 2024.73 171.06 2031.09 172.86C2037.57 174.54 2043.21 177.78 2048.01 182.58C2052.93 187.26 2055.39 194.58 2055.39 204.54Z" fill="#161718"/>
</svg>
